<svg width="72" height="72" viewBox="0 0 72 72" fill="none" xmlns="http://www.w3.org/2000/svg">
<rect width="72" height="72" rx="36" fill="#5F27FF"/>
<g clip-path="url(#clip0_4609_981)">
<path d="M12.0168 53.35L12.4425 51.0504C12.5688 50.3631 13.2413 49.8066 13.945 49.8066H16.606C16.7559 49.8066 16.8563 49.9252 16.8297 50.0719L16.701 50.778C16.6739 50.9248 16.531 51.0433 16.381 51.0433H14.0649C13.9751 51.0433 13.8889 51.1149 13.873 51.203L13.5105 53.1874C13.4946 53.2755 13.5548 53.3465 13.6445 53.3465H15.9607C16.1106 53.3465 16.211 53.4656 16.1844 53.6124L16.0533 54.3349C16.0268 54.4816 15.8833 54.6002 15.7333 54.6002H13.0659C12.3598 54.6002 11.8899 54.0402 12.0168 53.35Z" fill="white"/>
<path d="M22.5128 51.0482L22.0942 53.3514C21.9691 54.041 21.2954 54.5998 20.5899 54.5998H17.8133C17.1077 54.5998 16.6372 54.0404 16.7624 53.3514L17.1809 51.0482C17.3061 50.3592 17.9798 49.7998 18.6853 49.7998H21.4619C22.1674 49.7998 22.638 50.3592 22.5128 51.0482ZM21.0274 51.195C21.0433 51.1069 20.9831 51.0353 20.8928 51.0353H18.8022C18.7118 51.0353 18.6256 51.1063 18.6097 51.195L18.2472 53.1876C18.2313 53.2763 18.2915 53.3473 18.3812 53.3473H20.4724C20.5627 53.3473 20.6489 53.2763 20.6649 53.1876L21.0268 51.195H21.0274Z" fill="white"/>
<path d="M24.4946 51.9364L24.0589 54.3329C24.0324 54.4796 23.8889 54.5982 23.7389 54.5982H22.8374C22.6874 54.5982 22.5871 54.4796 22.6136 54.3329L23.3865 50.0817C23.413 49.935 23.5565 49.8164 23.7065 49.8164H24.856C24.9357 49.8164 25.0059 49.8504 25.0473 49.9109L26.4087 52.3162C26.443 52.3672 26.5215 52.3532 26.5321 52.2945L26.9342 50.0817C26.9607 49.935 27.1042 49.8164 27.2542 49.8164H28.1557C28.3057 49.8164 28.406 49.935 28.3801 50.0829L27.6072 54.3341C27.5801 54.4808 27.4372 54.5994 27.2872 54.5994H26.2912C26.2109 54.5994 26.1413 54.5642 26.0999 54.5049L24.618 51.9153C24.5832 51.8642 24.5047 51.8783 24.4946 51.937V51.9364Z" fill="white"/>
<path d="M28.4738 53.35L28.8995 51.051C29.0258 50.3636 29.6983 49.8066 30.4021 49.8066H33.063C33.213 49.8066 33.3133 49.9252 33.2868 50.0719L33.158 50.778C33.1309 50.9248 32.988 51.0433 32.838 51.0433H30.5219C30.4322 51.0433 30.346 51.1149 30.33 51.203L29.9675 53.1874C29.9516 53.2755 30.0118 53.3465 30.1016 53.3465H32.4177C32.5676 53.3465 32.668 53.4656 32.6414 53.6124L32.5104 54.3349C32.4838 54.4816 32.3403 54.6002 32.1904 54.6002H29.523C28.8168 54.6002 28.3469 54.0402 28.4738 53.35Z" fill="white"/>
<path d="M33.1068 54.3333L33.8814 50.0721C33.908 49.9254 34.0521 49.8057 34.202 49.8057H38.2569C38.3472 49.8057 38.4068 49.8773 38.3909 49.9653L38.2268 50.868C38.2108 50.9561 38.1246 51.0283 38.0343 51.0283H35.2157C35.1856 51.0283 35.1567 51.0523 35.152 51.0817L35.0622 51.5753C35.0569 51.6046 35.077 51.6287 35.1071 51.6287H37.3736C37.464 51.6287 37.5236 51.6997 37.5077 51.7883L37.3565 52.6171C37.3406 52.7046 37.2544 52.7768 37.1641 52.7768H34.8975C34.8674 52.7768 34.8385 52.8008 34.8338 52.8302L34.7499 53.2909C34.7446 53.3203 34.7647 53.3443 34.7948 53.3443H37.6133C37.7037 53.3443 37.7633 53.4153 37.7474 53.504L37.5779 54.4407C37.562 54.5282 37.4758 54.6004 37.3854 54.6004H33.3306C33.18 54.6004 33.0797 54.4812 33.1057 54.3345L33.1068 54.3333Z" fill="white"/>
<path d="M43.6093 52.1479C43.4842 52.8376 42.8105 53.3964 42.105 53.3964L39.9058 53.3981C39.8757 53.3981 39.8467 53.4222 39.842 53.4515L39.6814 54.3349C39.6549 54.4816 39.5114 54.6002 39.3614 54.6002H38.4546C38.3046 54.6002 38.2043 54.4816 38.2308 54.3349L39.0048 50.0778C39.032 49.9311 39.1749 49.8125 39.3248 49.8125H42.7562C43.4617 49.8125 43.9323 50.3713 43.8065 51.0609L43.6093 52.1485V52.1479ZM42.1174 51.0099H40.3415C40.3114 51.0099 40.2825 51.0339 40.2777 51.0633L40.0811 52.1456C40.0758 52.1755 40.0959 52.199 40.126 52.199H41.9019C42.0353 52.199 42.1629 52.0928 42.1871 51.9625L42.3176 51.2464C42.3412 51.1155 42.252 51.0087 42.118 51.0093L42.1174 51.0099Z" fill="white"/>
<path d="M49.0103 50.0811L48.8851 50.7684C48.8586 50.9152 48.7151 51.0337 48.5651 51.0337H47.2373C47.2072 51.0337 47.1783 51.0578 47.1736 51.0871L46.5832 54.3341C46.5566 54.4808 46.4131 54.6 46.2632 54.6H45.3552C45.2052 54.6 45.1048 54.4814 45.1314 54.3347L45.7218 51.0877C45.7277 51.0578 45.707 51.0343 45.6769 51.0343H44.3491C44.1992 51.0343 44.0988 50.9157 44.1254 50.769L44.2499 50.0817C44.2765 49.935 44.42 49.8164 44.5699 49.8164H48.7871C48.9371 49.8164 49.0369 49.935 49.0109 50.0817L49.0103 50.0811Z" fill="white"/>
<path d="M48.6722 54.3335L49.4462 50.0758C49.4734 49.9291 49.6163 49.8105 49.7662 49.8105H53.1982C53.9037 49.8105 54.3737 50.3699 54.2485 51.0596L54.1789 51.4428C54.173 51.454 54.1741 51.4651 54.1724 51.4763C54.1275 51.724 53.9882 51.9476 53.7998 52.1184C53.817 52.1025 53.9711 52.3831 53.9817 52.4095C54.026 52.5158 54.0419 52.6179 54.0401 52.7253C54.0389 52.8127 54.026 52.9043 54.0082 53.0041L53.9315 53.4261C53.814 54.0741 53.1805 54.5994 52.5181 54.5994H48.896C48.746 54.5994 48.6457 54.4802 48.6722 54.3335ZM50.3106 53.3034C50.3053 53.3328 50.3253 53.3568 50.3555 53.3568H52.2536C52.3876 53.3568 52.5157 53.2506 52.5393 53.1197L52.5635 52.9877C52.5872 52.8568 52.4986 52.7505 52.364 52.7505H50.4659C50.4358 52.7505 50.4068 52.774 50.4021 52.8034L50.3106 53.3034ZM50.627 51.5602C50.6217 51.5902 50.6418 51.6136 50.6719 51.6136H52.4478C52.5818 51.6136 52.71 51.5074 52.7336 51.3765L52.7578 51.2444C52.7814 51.1136 52.6928 51.0073 52.5582 51.0073H50.7823C50.7522 51.0073 50.7239 51.0314 50.7186 51.0607L50.627 51.5602Z" fill="white"/>
<path d="M54.4076 54.3333L55.1822 50.0721C55.2088 49.9254 55.3528 49.8057 55.5028 49.8057H59.5577C59.648 49.8057 59.7076 49.8773 59.6917 49.9653L59.5275 50.868C59.5116 50.9561 59.4254 51.0283 59.3351 51.0283H56.5165C56.4864 51.0283 56.4575 51.0523 56.4528 51.0817L56.363 51.5753C56.3577 51.6046 56.3778 51.6287 56.4079 51.6287H58.6744C58.7648 51.6287 58.8244 51.6997 58.8084 51.7883L58.6573 52.6171C58.6414 52.7046 58.5552 52.7768 58.4648 52.7768H56.1983C56.1682 52.7768 56.1393 52.8008 56.1345 52.8302L56.0507 53.2909C56.0454 53.3203 56.0655 53.3443 56.0956 53.3443H58.9141C59.0045 53.3443 59.0641 53.4153 59.0481 53.504L58.8787 54.4407C58.8628 54.5282 58.7766 54.6004 58.6862 54.6004H54.6314C54.4808 54.6004 54.3805 54.4812 54.4064 54.3345L54.4076 54.3333Z" fill="white"/>
</g>
<g clip-path="url(#clip1_4609_981)">
<path fill-rule="evenodd" clip-rule="evenodd" d="M47.735 26.3702C39.672 33.7866 28.0297 35.6818 28.0297 35.6818V35.6808C24.9289 36.2211 21.2969 36.1783 21.2969 34.4098C21.2969 32.3772 25.3692 29.4643 25.3692 29.4643V23.2296C25.3692 22.1477 24.9646 21.8521 24.574 21.5668C24.4999 21.5126 24.4262 21.4588 24.3559 21.4001C24.2747 21.3322 24.123 21.2535 23.9379 21.1573C23.1984 20.7733 21.9243 20.1116 22.4646 18.757C23.0475 17.2928 25.0977 17.4012 25.0977 17.4012H41.9819V17.403C44.4444 17.4659 46.571 18.8845 47.6478 20.9427C48.3216 20.6885 49.1479 20.4999 49.9342 20.6521C51.6903 20.991 50.1367 24.2646 48.0764 26.0504C47.9693 26.1543 47.8558 26.2609 47.735 26.3702ZM43.6581 27.1683C42.2543 24.6172 39.5494 22.8888 36.4404 22.8888H36.4414C31.8905 22.8888 28.2013 26.5907 28.2013 31.1572C28.2013 32.102 28.3602 33.0095 28.6507 33.855C35.2764 32.3899 41.0767 29.0334 43.6581 27.1683ZM44.6801 31.251L46.4298 30.1449C48.924 31.4505 50.6274 34.0691 50.6274 37.0876C50.6274 41.4108 47.1353 44.9149 42.8268 44.9149H24.558C23.4102 44.9149 22.4768 44.3701 22.2925 43.4089C22.1263 42.5424 22.5313 41.9329 23.0044 41.5939C23.0775 41.5415 23.1636 41.4875 23.2578 41.4284C23.7728 41.105 24.5317 40.6286 24.7604 39.4255C24.8095 39.1695 24.8603 38.6802 24.9112 38.0534C26.9042 38.0443 28.9327 37.7381 30.8867 37.2643C32.3513 38.6064 34.3008 39.4255 36.4409 39.4255C40.9609 39.4255 44.6301 35.7738 44.6801 31.251Z" fill="white"/>
</g>
<defs>
<clipPath id="clip0_4609_981">
<rect width="47.7" height="4.8" fill="white" transform="translate(11.9961 49.7998)"/>
</clipPath>
<clipPath id="clip1_4609_981">
<rect width="29.4" height="27.6" fill="white" transform="translate(21.2969 17.3994)"/>
</clipPath>
</defs>
</svg>
