<svg width="40" height="40" viewBox="0 0 40 40" fill="none" xmlns="http://www.w3.org/2000/svg">
<rect width="40" height="40" rx="20" fill="#5F27FF"/>
<g clip-path="url(#clip0_4609_981)">
<path d="M6.67556 29.6394L6.91205 28.3619C6.98224 27.98 7.35583 27.6709 7.74681 27.6709H9.2251C9.30841 27.6709 9.36417 27.7368 9.34941 27.8183L9.2779 28.2106C9.26282 28.2921 9.18344 28.3579 9.10013 28.3579H7.81339C7.76354 28.3579 7.71565 28.3977 7.70679 28.4466L7.5054 29.5491C7.49654 29.598 7.53 29.6375 7.57986 29.6375H8.86659C8.94991 29.6375 9.00567 29.7037 8.99091 29.7852L8.91809 30.1866C8.90333 30.2681 8.82363 30.334 8.74032 30.334H7.25842C6.86613 30.334 6.60504 30.0229 6.67556 29.6394Z" fill="white"/>
<path d="M12.5067 28.3606L12.2741 29.6401C12.2046 30.0232 11.8304 30.3337 11.4384 30.3337H9.89582C9.50386 30.3337 9.24245 30.0229 9.31198 29.6401L9.54453 28.3606C9.61407 27.9777 9.98832 27.667 10.3803 27.667H11.9229C12.3148 27.667 12.5762 27.9777 12.5067 28.3606ZM11.6814 28.4421C11.6903 28.3932 11.6568 28.3534 11.6067 28.3534H10.4452C10.395 28.3534 10.3471 28.3928 10.3383 28.4421L10.1369 29.5491C10.128 29.5984 10.1615 29.6378 10.2114 29.6378H11.3731C11.4233 29.6378 11.4712 29.5984 11.4801 29.5491L11.6811 28.4421H11.6814Z" fill="white"/>
<path d="M13.606 28.8546L13.3639 30.1859C13.3491 30.2674 13.2694 30.3333 13.1861 30.3333H12.6853C12.602 30.3333 12.5462 30.2674 12.561 30.1859L12.9903 27.8241C13.0051 27.7426 13.0848 27.6768 13.1681 27.6768H13.8067C13.851 27.6768 13.89 27.6957 13.913 27.7293L14.6693 29.0655C14.6884 29.0939 14.732 29.0861 14.7379 29.0535L14.9613 27.8241C14.976 27.7426 15.0557 27.6768 15.139 27.6768H15.6399C15.7232 27.6768 15.779 27.7426 15.7645 27.8248L15.3352 30.1866C15.3201 30.2681 15.2407 30.334 15.1574 30.334H14.6041C14.5595 30.334 14.5208 30.3144 14.4978 30.2815L13.6745 28.8428C13.6552 28.8144 13.6115 28.8223 13.606 28.8549V28.8546Z" fill="white"/>
<path d="M15.8201 29.6394L16.0566 28.3622C16.1268 27.9803 16.5004 27.6709 16.8913 27.6709H18.3696C18.4529 27.6709 18.5087 27.7368 18.4939 27.8183L18.4224 28.2106C18.4073 28.2921 18.328 28.3579 18.2447 28.3579H16.9579C16.9081 28.3579 16.8602 28.3977 16.8513 28.4466L16.6499 29.5491C16.6411 29.598 16.6745 29.6375 16.7244 29.6375H18.0111C18.0944 29.6375 18.1502 29.7037 18.1354 29.7852L18.0626 30.1866C18.0479 30.2681 17.9682 30.334 17.8848 30.334H16.4029C16.0107 30.334 15.7496 30.0229 15.8201 29.6394Z" fill="white"/>
<path d="M18.3936 30.1853L18.8239 27.818C18.8386 27.7364 18.9187 27.6699 19.002 27.6699H21.2547C21.3049 27.6699 21.338 27.7097 21.3291 27.7586L21.238 28.2601C21.2291 28.309 21.1812 28.3491 21.131 28.3491H19.5652C19.5484 28.3491 19.5324 28.3625 19.5297 28.3788L19.4799 28.653C19.4769 28.6694 19.4881 28.6827 19.5048 28.6827H20.764C20.8142 28.6827 20.8473 28.7222 20.8385 28.7714L20.7545 29.2318C20.7456 29.2804 20.6977 29.3205 20.6476 29.3205H19.3884C19.3716 29.3205 19.3556 29.3339 19.353 29.3502L19.3064 29.6062C19.3034 29.6225 19.3146 29.6358 19.3313 29.6358H20.8972C20.9474 29.6358 20.9805 29.6753 20.9716 29.7245L20.8775 30.245C20.8686 30.2935 20.8207 30.3337 20.7706 30.3337H18.5179C18.4342 30.3337 18.3785 30.2675 18.3929 30.1859L18.3936 30.1853Z" fill="white"/>
<path d="M24.2287 28.9713C24.1592 29.3544 23.7849 29.6649 23.393 29.6649L22.1712 29.6658C22.1545 29.6658 22.1384 29.6792 22.1358 29.6955L22.0465 30.1863C22.0318 30.2678 21.9521 30.3336 21.8688 30.3336H21.365C21.2816 30.3336 21.2259 30.2678 21.2407 30.1863L21.6707 27.8212C21.6857 27.7397 21.7651 27.6738 21.8484 27.6738H23.7548C24.1467 27.6738 24.4081 27.9843 24.3383 28.3674L24.2287 28.9716V28.9713ZM23.3999 28.339H22.4132C22.3965 28.339 22.3804 28.3524 22.3778 28.3687L22.2686 28.97C22.2656 28.9866 22.2768 28.9997 22.2935 28.9997H23.2801C23.3543 28.9997 23.4251 28.9406 23.4386 28.8683L23.5111 28.4704C23.5242 28.3977 23.4746 28.3384 23.4002 28.3387L23.3999 28.339Z" fill="white"/>
<path d="M27.2279 27.8228L27.1584 28.2047C27.1437 28.2862 27.064 28.3521 26.9806 28.3521H26.243C26.2262 28.3521 26.2102 28.3654 26.2075 28.3817L25.8795 30.1856C25.8648 30.2671 25.7851 30.3333 25.7018 30.3333H25.1973C25.114 30.3333 25.0582 30.2674 25.073 30.1859L25.401 28.3821C25.4043 28.3654 25.3928 28.3524 25.3761 28.3524H24.6384C24.5551 28.3524 24.4993 28.2865 24.5141 28.205L24.5833 27.8232C24.5981 27.7416 24.6778 27.6758 24.7611 27.6758H27.104C27.1873 27.6758 27.2427 27.7416 27.2283 27.8232L27.2279 27.8228Z" fill="white"/>
<path d="M27.0414 30.1856L27.4714 27.8202C27.4865 27.7387 27.5659 27.6729 27.6492 27.6729H29.5559C29.9478 27.6729 30.2089 27.9836 30.1394 28.3667L30.1007 28.5797C30.0974 28.5859 30.0981 28.5921 30.0971 28.5983C30.0721 28.7359 29.9947 28.8601 29.8901 28.955C29.8996 28.9462 29.9852 29.1021 29.9911 29.1167C30.0157 29.1757 30.0246 29.2325 30.0236 29.2922C30.0229 29.3407 30.0157 29.3916 30.0059 29.447L29.9632 29.6815C29.898 30.0415 29.546 30.3333 29.178 30.3333H27.1657C27.0824 30.3333 27.0267 30.2671 27.0414 30.1856ZM27.9516 29.6133C27.9487 29.6296 27.9598 29.643 27.9766 29.643H29.0311C29.1055 29.643 29.1767 29.584 29.1898 29.5113L29.2033 29.4379C29.2164 29.3652 29.1672 29.3062 29.0924 29.3062H28.0379C28.0212 29.3062 28.0051 29.3192 28.0025 29.3355L27.9516 29.6133ZM28.1274 28.6449C28.1245 28.6615 28.1356 28.6746 28.1524 28.6746H29.139C29.2134 28.6746 29.2846 28.6155 29.2977 28.5428L29.3112 28.4695C29.3243 28.3967 29.2751 28.3377 29.2003 28.3377H28.2137C28.197 28.3377 28.1812 28.3511 28.1783 28.3674L28.1274 28.6449Z" fill="white"/>
<path d="M30.2256 30.1853L30.6559 27.818C30.6707 27.7364 30.7507 27.6699 30.834 27.6699H33.0867C33.1369 27.6699 33.17 27.7097 33.1612 27.7586L33.07 28.2601C33.0611 28.309 33.0132 28.3491 32.9631 28.3491H31.3972C31.3805 28.3491 31.3644 28.3625 31.3618 28.3788L31.3119 28.653C31.309 28.6694 31.3201 28.6827 31.3368 28.6827H32.596C32.6462 28.6827 32.6793 28.7222 32.6705 28.7714L32.5865 29.2318C32.5777 29.2804 32.5298 29.3205 32.4796 29.3205H31.2204C31.2037 29.3205 31.1876 29.3339 31.185 29.3502L31.1384 29.6062C31.1355 29.6225 31.1466 29.6358 31.1633 29.6358H32.7292C32.7794 29.6358 32.8125 29.6753 32.8037 29.7245L32.7095 30.245C32.7007 30.2935 32.6528 30.3337 32.6026 30.3337H30.3499C30.2663 30.3337 30.2105 30.2675 30.2249 30.1859L30.2256 30.1853Z" fill="white"/>
</g>
<g clip-path="url(#clip1_4609_981)">
<path fill-rule="evenodd" clip-rule="evenodd" d="M26.5199 14.6508C22.0404 18.771 15.5725 19.8238 15.5725 19.8238V19.8233C13.8498 20.1235 11.832 20.0997 11.832 19.1172C11.832 17.988 14.0945 16.3697 14.0945 16.3697V12.906C14.0945 12.3049 13.8696 12.1407 13.6527 11.9822C13.6115 11.9521 13.5705 11.9222 13.5315 11.8896C13.4864 11.8519 13.4021 11.8081 13.2993 11.7547C12.8884 11.5414 12.1806 11.1737 12.4807 10.4212C12.8046 9.60776 13.9436 9.66799 13.9436 9.66799H23.3237V9.66901C24.6918 9.70393 25.8732 10.492 26.4715 11.6355C26.8458 11.4943 27.3048 11.3895 27.7416 11.474C28.7172 11.6623 27.8541 13.481 26.7096 14.4731C26.65 14.5308 26.587 14.59 26.5199 14.6508ZM24.2549 15.0942C23.4751 13.6769 21.9723 12.7167 20.2451 12.7167H20.2456C17.7174 12.7167 15.6678 14.7733 15.6678 17.3102C15.6678 17.8351 15.7561 18.3392 15.9175 18.809C19.5984 17.995 22.8208 16.1303 24.2549 15.0942ZM24.8227 17.3623L25.7948 16.7478C27.1805 17.4732 28.1268 18.9279 28.1268 20.6049C28.1268 23.0067 26.1867 24.9534 23.7931 24.9534H13.6437C13.0061 24.9534 12.4876 24.6507 12.3852 24.1167C12.2928 23.6353 12.5178 23.2967 12.7806 23.1084C12.8213 23.0793 12.8691 23.0493 12.9214 23.0164C13.2076 22.8368 13.6292 22.5721 13.7562 21.9037C13.7835 21.7615 13.8117 21.4897 13.84 21.1414C14.9472 21.1363 16.0741 20.9663 17.1597 20.7031C17.9734 21.4487 19.0564 21.9037 20.2454 21.9037C22.7565 21.9037 24.7949 19.875 24.8227 17.3623Z" fill="white"/>
</g>
<defs>
<clipPath id="clip0_4609_981">
<rect width="26.5" height="2.66667" fill="white" transform="translate(6.66406 27.667)"/>
</clipPath>
<clipPath id="clip1_4609_981">
<rect width="16.3333" height="15.3333" fill="white" transform="translate(11.832 9.66699)"/>
</clipPath>
</defs>
</svg>
