<svg width="72" height="72" viewBox="0 0 72 72" fill="none" xmlns="http://www.w3.org/2000/svg">
<circle cx="36" cy="36" r="36" fill="white"/>
<path d="M46.2983 24.0019L55.3663 27.2059C55.746 27.34 56 27.6994 56 28.1025V54.0483C56 54.7113 55.3392 55.1708 54.7185 54.9393L45.6506 51.5574C45.2788 51.4187 45.0323 51.0634 45.0323 50.6663V24.8986C45.0323 24.2425 45.6803 23.7835 46.2983 24.0019Z" fill="#454545"/>
<path d="M17.266 23.7866L26.334 26.9906C26.7137 27.1248 26.9677 27.4841 26.9677 27.8873V53.833C26.9677 54.496 26.3069 54.9555 25.6862 54.724L16.6182 51.3421C16.2465 51.2034 16 50.8481 16 50.451V24.6833C16 24.0272 16.648 23.5683 17.266 23.7866Z" fill="#454545"/>
<path d="M40.3254 23.7866L31.2575 26.9906C30.8777 27.1248 30.6237 27.4841 30.6237 27.8873V53.833C30.6237 54.496 31.2845 54.9555 31.9052 54.724L40.9732 51.3421C41.3449 51.2034 41.5914 50.8481 41.5914 50.451V24.6833C41.5914 24.0272 40.9434 23.5683 40.3254 23.7866Z" fill="#454545"/>
<path d="M34.2794 47.7379C33.6303 48.5717 32.3105 47.8818 32.6229 46.872L36.6515 33.8508C36.827 33.2837 37.4728 33.0145 37.9985 33.2892L42.3401 35.5586C42.8658 35.8333 43.0142 36.5178 42.6497 36.986L34.2794 47.7379Z" fill="#BCBCBC"/>
<path d="M52.7275 27.1428C52.7275 32.7446 48.1914 37.2857 42.5958 37.2857C37.0002 37.2857 32.4641 32.7446 32.4641 27.1428C32.4641 21.5411 37.0002 17 42.5958 17C48.1914 17 52.7275 21.5411 52.7275 27.1428Z" fill="#E1325C"/>
<path d="M40.9072 22.6349C40.9072 23.8797 39.8992 24.8889 38.6557 24.8889C37.4122 24.8889 36.4042 23.8797 36.4042 22.6349C36.4042 21.3901 37.4122 20.3809 38.6557 20.3809C39.8992 20.3809 40.9072 21.3901 40.9072 22.6349Z" fill="white" fill-opacity="0.6"/>
<path d="M48.7874 25.1706C48.7874 25.6374 48.4094 26.0159 47.9431 26.0159C47.4768 26.0159 47.0988 25.6374 47.0988 25.1706C47.0988 24.7038 47.4768 24.3254 47.9431 24.3254C48.4094 24.3254 48.7874 24.7038 48.7874 25.1706Z" fill="black"/>
<path d="M45.4102 27.9881C45.4102 28.4549 45.0322 28.8333 44.5659 28.8333C44.0996 28.8333 43.7216 28.4549 43.7216 27.9881C43.7216 27.5213 44.0996 27.1428 44.5659 27.1428C45.0322 27.1428 45.4102 27.5213 45.4102 27.9881Z" fill="black"/>
<path fill-rule="evenodd" clip-rule="evenodd" d="M49.7126 30.4643C49.9482 30.6733 49.97 31.0338 49.7613 31.2697C48.5052 32.6892 46.7565 33.172 45.1728 32.4465C44.8866 32.3154 44.7607 31.9768 44.8917 31.6903C45.0227 31.4037 45.3609 31.2778 45.6471 31.4089C46.6976 31.8901 47.9247 31.6244 48.9081 30.5131C49.1168 30.2772 49.477 30.2554 49.7126 30.4643Z" fill="black"/>
</svg>
