<svg width="40" height="40" viewBox="0 0 40 40" fill="none" xmlns="http://www.w3.org/2000/svg">
<circle cx="20" cy="20" r="20" fill="white"/>
<path d="M26.179 12.238L31.6198 14.1772C31.8476 14.2584 32 14.4759 32 14.72V30.4239C32 30.8253 31.6035 31.1034 31.2311 30.9633L25.7903 28.9163C25.5673 28.8324 25.4194 28.6173 25.4194 28.377V12.7807C25.4194 12.3836 25.8082 12.1058 26.179 12.238Z" fill="#454545"/>
<path d="M8.75959 12.1077L14.2004 14.0469C14.4282 14.1281 14.5806 14.3456 14.5806 14.5897V30.2936C14.5806 30.695 14.1841 30.9731 13.8117 30.833L8.37095 28.786C8.14791 28.7021 8 28.487 8 28.2467V12.6504C8 12.2533 8.38879 11.9755 8.75959 12.1077Z" fill="#454545"/>
<path d="M22.5953 12.1077L17.1545 14.0469C16.9266 14.1281 16.7742 14.3456 16.7742 14.5897V30.2936C16.7742 30.695 17.1707 30.9731 17.5431 30.833L22.9839 28.786C23.2069 28.7021 23.3549 28.487 23.3549 28.2467V12.6504C23.3549 12.2533 22.9661 11.9755 22.5953 12.1077Z" fill="#454545"/>
<path d="M18.9677 26.6045C18.5782 27.1092 17.7863 26.6916 17.9737 26.0804L20.3909 18.1992C20.4962 17.8559 20.8837 17.693 21.1991 17.8593L23.8041 19.2328C24.1195 19.3991 24.2085 19.8134 23.9898 20.0968L18.9677 26.6045Z" fill="#BCBCBC"/>
<path d="M30.0365 14.1391C30.0365 17.5296 27.3148 20.2782 23.9575 20.2782C20.6001 20.2782 17.8784 17.5296 17.8784 14.1391C17.8784 10.7486 20.6001 8 23.9575 8C27.3148 8 30.0365 10.7486 30.0365 14.1391Z" fill="#E1325C"/>
<path d="M22.9443 11.4106C22.9443 12.164 22.3395 12.7748 21.5934 12.7748C20.8473 12.7748 20.2425 12.164 20.2425 11.4106C20.2425 10.6572 20.8473 10.0464 21.5934 10.0464C22.3395 10.0464 22.9443 10.6572 22.9443 11.4106Z" fill="white" fill-opacity="0.6"/>
<path d="M27.6725 12.9454C27.6725 13.2279 27.4456 13.457 27.1659 13.457C26.8861 13.457 26.6593 13.2279 26.6593 12.9454C26.6593 12.6628 26.8861 12.4338 27.1659 12.4338C27.4456 12.4338 27.6725 12.6628 27.6725 12.9454Z" fill="black"/>
<path d="M25.6461 14.6507C25.6461 14.9332 25.4193 15.1623 25.1395 15.1623C24.8597 15.1623 24.6329 14.9332 24.6329 14.6507C24.6329 14.3681 24.8597 14.1391 25.1395 14.1391C25.4193 14.1391 25.6461 14.3681 25.6461 14.6507Z" fill="black"/>
<path fill-rule="evenodd" clip-rule="evenodd" d="M28.2275 16.1495C28.3689 16.2759 28.382 16.4942 28.2568 16.6369C27.5031 17.4961 26.4539 17.7883 25.5037 17.3492C25.332 17.2698 25.2564 17.0649 25.335 16.8915C25.4136 16.7181 25.6165 16.6418 25.7883 16.7212C26.4185 17.0124 27.1548 16.8516 27.7448 16.179C27.8701 16.0362 28.0862 16.023 28.2275 16.1495Z" fill="black"/>
</svg>
