<svg width="72" height="72" viewBox="0 0 72 72" fill="none" xmlns="http://www.w3.org/2000/svg">
<path d="M0 63C0 65.3869 0.948212 67.6761 2.63604 69.364C4.32387 71.0518 6.61305 72 9 72H63C65.3869 72 67.6761 71.0518 69.364 69.364C71.0518 67.6761 72 65.3869 72 63V9C72 6.61305 71.0518 4.32387 69.364 2.63604C67.6761 0.948212 65.3869 0 63 0L9 0C6.61305 0 4.32387 0.948212 2.63604 2.63604C0.948212 4.32387 0 6.61305 0 9L0 63ZM20.25 33.75H46.3185L36.657 24.093C36.2345 23.6705 35.9972 23.0975 35.9972 22.5C35.9972 21.9025 36.2345 21.3295 36.657 20.907C37.0795 20.4845 37.6525 20.2472 38.25 20.2472C38.8475 20.2472 39.4205 20.4845 39.843 20.907L53.343 34.407C53.5525 34.616 53.7188 34.8643 53.8322 35.1376C53.9456 35.411 54.004 35.704 54.004 36C54.004 36.296 53.9456 36.589 53.8322 36.8623C53.7188 37.1357 53.5525 37.384 53.343 37.593L39.843 51.093C39.4205 51.5155 38.8475 51.7528 38.25 51.7528C37.6525 51.7528 37.0795 51.5155 36.657 51.093C36.2345 50.6705 35.9972 50.0975 35.9972 49.5C35.9972 48.9025 36.2345 48.3295 36.657 47.907L46.3185 38.25H20.25C19.6533 38.25 19.081 38.0129 18.659 37.591C18.2371 37.169 18 36.5967 18 36C18 35.4033 18.2371 34.831 18.659 34.409C19.081 33.9871 19.6533 33.75 20.25 33.75Z" fill="white"/>
</svg>
