<svg width="26" height="20" viewBox="0 0 26 20" fill="none" xmlns="http://www.w3.org/2000/svg">
<path d="M11.3132 19.0884L0.559121 4.43258C-0.710024 2.7082 0.321436 9.83042e-07 2.24758 9.83042e-07H23.7558C24.1868 -0.000439673 24.6089 0.147274 24.9714 0.425455C25.3338 0.703635 25.6214 1.10049 25.7995 1.56849C25.9777 2.0365 26.0389 2.55581 25.9759 3.06424C25.9129 3.57268 25.7283 4.04868 25.4442 4.43525L14.6901 19.0857C14.4797 19.3729 14.2201 19.603 13.9289 19.7607C13.6377 19.9184 13.3215 20 13.0017 20C12.6818 20 12.3657 19.9184 12.0745 19.7607C11.7832 19.603 11.5237 19.3729 11.3132 19.0857V19.0884Z" fill="#191F1E"/>
</svg>
